<svg xmlns="http://www.w3.org/2000/svg" xmlns:xlink="http://www.w3.org/1999/xlink" viewBox="0 0 641 800"><defs><style>.cls-1{fill:none;}.cls-2{fill:#c2bcb0;}.cls-3{clip-path:url(#clip-path);}.cls-4{fill:#ffce00;}.cls-4,.cls-6{opacity:0.5;}.cls-5{clip-path:url(#clip-path-2);}.cls-6{fill:#e3b8cf;}</style><clipPath id="clip-path"><rect class="cls-1" x="-639" width="641" height="800"/></clipPath><clipPath id="clip-path-2"><rect class="cls-1" width="641" height="800"/></clipPath></defs><g id="Capa_4" data-name="Capa 4"><rect class="cls-2" x="-639" width="1280" height="800"/></g><g id="_02" data-name="02"><g class="cls-3"><polygon class="cls-4" points="570.31 -705.02 1.25 921.41 -2228.38 855.73 872.24 1090.37 -688.66 -1584.43 114.71 1684.49 -1967.79 947.39 207.39 1.6 607.15 -228.57 -1840.32 572.45 -177.55 2125.05 -976.04 -1357.66 1112.9 639.35 -2018.33 772.47 -509.75 1264.08 595.03 -498.44 -688.67 -420.65 -388.82 2331.32 570.31 -705.02"/></g><g class="cls-5"><polygon class="cls-6" points="570.31 -705.02 1.25 921.41 -2228.38 855.73 872.24 1090.37 -688.66 -1584.43 114.71 1684.49 -1967.79 947.39 207.39 1.6 607.15 -228.57 -1840.32 572.45 -177.55 2125.05 -976.04 -1357.66 1112.9 639.35 -2018.33 772.47 -509.75 1264.08 595.03 -498.44 -688.67 -420.65 -388.82 2331.32 570.31 -705.02"/></g></g></svg>