<svg xmlns="http://www.w3.org/2000/svg" xmlns:xlink="http://www.w3.org/1999/xlink" viewBox="0 0 641 800"><defs><style>.cls-1{fill:none;}.cls-2{fill:#c2bcb0;}.cls-3{clip-path:url(#clip-path);}.cls-4{fill:#ffce00;}.cls-4,.cls-6{opacity:0.5;}.cls-5{clip-path:url(#clip-path-2);}.cls-6{fill:#b9f4d8;}</style><clipPath id="clip-path"><rect class="cls-1" x="639" width="641" height="800"/></clipPath><clipPath id="clip-path-2"><rect class="cls-1" width="641" height="800"/></clipPath></defs><g id="Capa_4" data-name="Capa 4"><rect class="cls-2" width="1280" height="800"/></g><g id="_01" data-name="01"><g class="cls-3"><polygon class="cls-4" points="36.69 1253.9 621.1 97.11 2295.18 349.17 483.92 -14.01 21.98 -106.63 953.57 2023.74 677.34 -478.25 2156.5 258.77 430.99 763.46 122.15 898.48 2030.9 525.97 962.76 -778.31 1254.04 1883.24 -151.14 208.13 2144.94 392.39 1045.43 -110.75 59.85 1098.77 1017.7 1157.5 1049.02 -915.08 36.69 1253.9"/></g><g class="cls-5"><polygon class="cls-6" points="36.69 1253.9 621.1 97.11 2295.18 349.17 483.92 -14.01 21.98 -106.63 953.57 2023.74 677.34 -478.25 2156.5 258.77 430.99 763.46 122.15 898.48 2030.9 525.97 962.76 -778.31 1254.04 1883.24 -151.14 208.13 2144.94 392.39 1045.43 -110.75 59.85 1098.77 1017.7 1157.5 1049.02 -915.08 36.69 1253.9"/></g></g></svg>