<svg xmlns="http://www.w3.org/2000/svg" xmlns:xlink="http://www.w3.org/1999/xlink" viewBox="0 0 1280 800"><defs><style>.cls-1{fill:none;}.cls-2{fill:#c2bcb0;}.cls-3{clip-path:url(#clip-path);}.cls-4{fill:#ffce00;}.cls-4,.cls-6{opacity:0.5;}.cls-5{clip-path:url(#clip-path-2);}.cls-6{fill:#e3b8cf;}</style><clipPath id="clip-path"><rect class="cls-1" width="641" height="800"/></clipPath><clipPath id="clip-path-2"><rect class="cls-1" x="639" width="641" height="800"/></clipPath></defs><g id="Capa_4" data-name="Capa 4"><rect class="cls-2" width="1280" height="800"/></g><g id="_02" data-name="02"><g class="cls-3"><polygon class="cls-4" points="1209.31 -705.02 640.25 921.41 -1589.38 855.73 1511.24 1090.37 -49.66 -1584.43 753.71 1684.49 -1328.79 947.39 846.39 1.6 1246.15 -228.57 -1201.32 572.45 461.45 2125.05 -337.04 -1357.66 1751.9 639.35 -1379.33 772.47 129.25 1264.08 1234.03 -498.44 -49.67 -420.65 250.18 2331.32 1209.31 -705.02"/></g><g class="cls-5"><polygon class="cls-6" points="1209.31 -705.02 640.25 921.41 -1589.38 855.73 1511.24 1090.37 -49.66 -1584.43 753.71 1684.49 -1328.79 947.39 846.39 1.6 1246.15 -228.57 -1201.32 572.45 461.45 2125.05 -337.04 -1357.66 1751.9 639.35 -1379.33 772.47 129.25 1264.08 1234.03 -498.44 -49.67 -420.65 250.18 2331.32 1209.31 -705.02"/></g></g></svg>